<?xml version="1.0" ?>
<!DOCTYPE svg  PUBLIC '-//W3C//DTD SVG 1.1//EN'  'http://www.w3.org/Graphics/SVG/1.1/DTD/svg11.dtd'>
<!-- Uploaded to: SVG Repo, www.svgrepo.com, Generator: SVG Repo Mixer Tools -->
<svg fill="#000000" width="800px" height="800px" viewBox="0 0 512 512" version="1.1" xml:space="preserve" xmlns="http://www.w3.org/2000/svg" xmlns:xlink="http://www.w3.org/1999/xlink">
<g id="_x31_51_x2C__cloud_x2C__network_x2C__server_x2C__internet_x2C__data_x2C_">
<g>
<path d="M237.326,369.201H105.218v76.371h132.108V369.201z M88.916,452.114h-8.561    v6.754c0,1.463,1.116,2.926,2.699,4.122c2.1,1.622,4.866,2.632,7.14,2.632H252.35c2.26,0,5.038-1.01,7.14-2.632    c1.568-1.196,2.711-2.686,2.711-4.122l0.014-6.754h-8.589h-0.093h-12.857h-0.093h-69.311h-69.325h-0.093H88.997H88.916z     M452.613,369.201H320.505v76.371h132.108V369.201z M304.203,452.114h-8.562v6.754c0,1.463,1.116,2.926,2.698,4.122    c2.101,1.622,4.866,2.632,7.141,2.632h162.156c2.261,0,5.038-1.01,7.141-2.632c1.568-1.196,2.711-2.686,2.711-4.122l0.014-6.754    h-8.589h-0.094h-12.856h-0.094h-69.311h-69.324h-0.094h-12.857H304.203z M118.859,383.135c-1.795,0-3.271-1.463-3.271-3.271    c0-1.782,1.476-3.245,3.271-3.245h41.735c1.809,0,3.271,1.463,3.271,3.245c0,1.808-1.462,3.271-3.271,3.271H118.859z     M118.859,405.712c-1.795,0-3.271-1.463-3.271-3.271c0-1.809,1.476-3.271,3.271-3.271h103.774c1.808,0,3.271,1.463,3.271,3.271    c0,1.808-1.463,3.271-3.271,3.271H118.859z M118.859,417.73c-1.795,0-3.271-1.462-3.271-3.271c0-1.781,1.476-3.271,3.271-3.271    h103.774c1.808,0,3.271,1.489,3.271,3.271c0,1.809-1.463,3.271-3.271,3.271H118.859z M118.859,429.777    c-1.795,0-3.271-1.463-3.271-3.271c0-1.809,1.476-3.271,3.271-3.271h103.774c1.808,0,3.271,1.463,3.271,3.271    c0,1.808-1.463,3.271-3.271,3.271H118.859z M334.146,383.135c-1.795,0-3.271-1.463-3.271-3.271c0-1.782,1.477-3.245,3.271-3.245    h41.734c1.81,0,3.271,1.463,3.271,3.245c0,1.808-1.462,3.271-3.271,3.271H334.146z M334.146,405.712    c-1.795,0-3.271-1.463-3.271-3.271c0-1.809,1.477-3.271,3.271-3.271H437.92c1.808,0,3.271,1.463,3.271,3.271    c0,1.808-1.464,3.271-3.271,3.271H334.146z M334.146,417.73c-1.795,0-3.271-1.462-3.271-3.271c0-1.781,1.477-3.271,3.271-3.271    H437.92c1.808,0,3.271,1.489,3.271,3.271c0,1.809-1.464,3.271-3.271,3.271H334.146z M334.146,429.777    c-1.795,0-3.271-1.463-3.271-3.271c0-1.809,1.477-3.271,3.271-3.271H437.92c1.808,0,3.271,1.463,3.271,3.271    c0,1.808-1.464,3.271-3.271,3.271H334.146z M150.145,484.29c-1.795,0-3.271-1.462-3.271-3.271s1.476-3.271,3.271-3.271h91.847    c1.809,0,3.271,1.462,3.271,3.271s-1.462,3.271-3.271,3.271H150.145z M251.406,484.29c-1.809,0-3.271-1.462-3.271-3.271    s1.462-3.271,3.271-3.271h11.474c1.808,0,3.271,1.462,3.271,3.271s-1.464,3.271-3.271,3.271H251.406z M67.205,484.051    c-1.809,0-3.271-1.463-3.271-3.244c0-1.809,1.462-3.271,3.271-3.271h43.518c1.795,0,3.257,1.463,3.257,3.271    c0,1.781-1.462,3.244-3.257,3.244H67.205z M365.432,484.29c-1.795,0-3.271-1.462-3.271-3.271s1.477-3.271,3.271-3.271h91.847    c1.81,0,3.271,1.462,3.271,3.271s-1.462,3.271-3.271,3.271H365.432z M466.693,484.29c-1.81,0-3.271-1.462-3.271-3.271    s1.462-3.271,3.271-3.271h11.474c1.808,0,3.271,1.462,3.271,3.271s-1.464,3.271-3.271,3.271H466.693z M282.491,484.051    c-1.81,0-3.271-1.463-3.271-3.244c0-1.809,1.461-3.271,3.271-3.271h43.519c1.795,0,3.256,1.463,3.256,3.271    c0,1.781-1.461,3.244-3.256,3.244H282.491z M147.02,104.162h-1.13c-16.142,0-30.766,6.567-41.337,17.151    c-10.571,10.556-17.139,25.183-17.139,41.35c0,1.622,0.081,3.218,0.2,4.76v0.079c0.131,1.649,0.332,3.245,0.584,4.76l0.04,0.612    c-0.026,1.782-1.516,3.218-3.323,3.165l-0.439,0.025c-16.156,0-30.78,6.542-41.351,17.126    c-10.571,10.557-17.125,25.183-17.125,41.35c0,16.142,6.54,30.767,17.11,41.323c10.585,10.61,25.209,17.152,41.365,17.152h184.879    v3.164v0.107v19.146h-98.083c-1.809,0-3.271,1.462-3.271,3.271v37.309H96.03c-1.037,0-1.967,0.425-2.658,1.09    c-0.665,0.691-1.104,1.623-1.104,2.659v85.812h6.409v-79.642c0-1.808,1.476-3.271,3.271-3.271h69.325h69.311    c1.807,0,3.271,1.463,3.271,3.271v79.642h6.409v-85.812c0-1.036-0.425-1.968-1.09-2.659c-0.691-0.665-1.623-1.09-2.66-1.09    h-71.983v-34.037h98.004h0.093h0.079h121.816v34.037h-83.205c-1.037,0-1.967,0.425-2.658,1.09    c-0.665,0.691-1.104,1.623-1.104,2.659v85.812h6.408v-79.642c0-1.808,1.476-3.271,3.271-3.271h69.324h69.311    c1.808,0,3.271,1.463,3.271,3.271v79.642h6.408v-85.812c0-1.036-0.425-1.968-1.09-2.659c-0.691-0.665-1.623-1.09-2.66-1.09    h-60.735v-37.309c0-1.809-1.462-3.271-3.271-3.271H275.896v-19.146v-0.107v-3.164H427.51c16.075,0,30.646-6.488,41.19-16.965    l0.16-0.188c10.583-10.557,17.139-25.182,17.139-41.323c0-8.083-1.624-15.741-4.549-22.709c-3.03-7.18-7.485-13.667-13.003-19.065    c-0.824-0.746-1.236-1.915-0.984-3.086c0.506-2.393,0.904-4.84,1.171-7.259c0.238-2.366,0.372-4.813,0.372-7.366    c0-19.039-7.725-36.271-20.184-48.742c-12.471-12.472-29.717-20.184-48.741-20.184c-4.601,0-9.083,0.452-13.391,1.276    c-4.454,0.878-8.735,2.181-12.776,3.829c-0.531,0.213-1.13,0.318-1.742,0.213c-1.781-0.293-2.992-1.941-2.711-3.723    c0.278-1.755,0.503-3.59,0.65-5.531c0.16-1.781,0.227-3.643,0.227-5.531c0-19.039-7.727-36.297-20.171-48.742    c-12.485-12.472-29.729-20.211-48.771-20.211c-12.11,0-23.479,3.111-33.331,8.59c-10.185,5.611-18.788,13.775-24.984,23.561    l-0.105,0.186c-0.932,1.543-2.951,2.021-4.481,1.091c-4.506-2.766-9.453-4.946-14.652-6.408    c-5.011-1.41-10.356-2.181-15.887-2.181c-14.414,0-27.603,5.212-37.787,13.854c-10.344,8.775-17.604,21.088-19.904,35.049    C150.011,102.991,148.641,104.188,147.02,104.162z" style="fill-rule:evenodd;clip-rule:evenodd;"/>
</g>
</g>
<g id="Layer_1"/>
</svg>